<svg xmlns="http://www.w3.org/2000/svg" width="300" height="68.029" viewBox="0 0 300 68.029"><g transform="translate(-294.068 -321.572)"><path d="M338.2,394.312c-3.984-1.418-5.713-3.87-5.034-8.316,1.148-7.513,2.645-14.974,4.012-22.453.375-2.053.81-4.095,1.219-6.146-1.9-.3-2.463.161-3.234,2.064-2.392,5.907-4.7,11.853-7.3,17.667a62.539,62.539,0,0,1-4.875,8.448c-1.891,2.9-6.848,2.305-8.461-1.19a16.315,16.315,0,0,1-1.455-6.857c.062-4.2.743-8.388,1.046-12.59a47.212,47.212,0,0,0-.069-5.688,12.94,12.94,0,0,0-.76-2.465A16.444,16.444,0,0,0,311.6,359.3a85.164,85.164,0,0,0-6.26,27.286,16.54,16.54,0,0,1-1.128,4.939c-.935,2.5-2.522,3.084-5.069,2.161a7.664,7.664,0,0,1-4.8-9.172c1.5-5.219,3.155-10.4,4.767-15.583,1.669-5.373,3.246-10.78,5.1-16.088.888-2.535,1.609-4.806.86-7.624-.9-3.393,1.488-6.171,5.044-6.446a39.384,39.384,0,0,1,6.14.008c3.263.26,6.21,3.449,6.279,7.5.092,5.419-.444,10.845-.588,16.272-.059,2.19.2,4.389.32,6.583l.751.155a12.02,12.02,0,0,0,1.591-2.153c1.536-3.472,2.973-6.987,4.44-10.488,2.2-5.251,4.215-10.586,6.648-15.727,1.738-3.673,5.692-4.641,10.105-3,3.785,1.4,5.383,4.3,4.5,8.415-1,4.647-2.414,9.227-3.075,13.916-1.308,9.283-2.191,18.625-3.322,27.934-.25,2.059-.795,4.083-1.2,6.123Z" transform="translate(0 -4.711)" fill="#fff"/><path d="M705.732,348.4c-1.533,3.3-3.1,6.593-4.589,9.917-.967,2.163-1.777,4.395-2.731,6.563-1.394,3.166-2.845,6.308-4.291,9.451-1,2.173-3.77,3.5-6.513,3.162-3.06-.381-4.8-1.832-5.277-4.536-.384-2.179-.66-4.376-1.07-7.141-2.408,2.133-3.515,4.4-4.8,6.561a38.523,38.523,0,0,1-2.98,4.3c-1.868,2.336-4.307,1.963-6.733,1.132s-3.225-2.9-3.259-5.166c-.1-6.73-.063-13.462-.05-20.194a54.172,54.172,0,0,1,.217-7.288c.235-1.7.906-3.453,3.184-3.7,2.838-.3,4.875.559,6.146,2.686,1.254,2.1.9,4.288.578,6.533-.41,2.816-.732,5.65-.935,8.489a13.489,13.489,0,0,0,.492,3.1l.814.245a21.072,21.072,0,0,0,2.179-3.789c1.317-3.991,2.455-8.043,3.6-12.091.984-3.494,2.57-4.5,6.378-3.885,2.692.435,4.161,2.378,3.977,5.49-.168,2.846-.5,5.682-.719,8.525a4.522,4.522,0,0,0,.128,1.818,7.4,7.4,0,0,0,1.056,1.572c.458-.363,1.148-.636,1.333-1.106.765-1.946,1.384-3.948,2.042-5.934,1.19-3.592,2.221-7.245,3.614-10.756.7-1.754,1.985-3.186,4.36-3.039,2.273.142,3.077,1.676,3.858,3.367Z" transform="translate(-111.664 -5.362)" fill="#fff"/><path d="M558.977,362.719c1.867-4.545,3.774-9.075,5.588-13.641q2.215-5.577,4.245-11.227c1.419-3.957,2.908-7.9,4.013-11.952.708-2.593,2.1-3.586,5.537-2.6,2.8.8,3.754,3.136,4,5.821a18.476,18.476,0,0,1-1.811,10.088c-2.571,5.227-4.909,10.569-7.524,15.773-2.156,4.289-4.626,8.422-6.852,12.678-1.251,2.394-2.389,4.859-3.4,7.364s-2.636,3.7-5.354,3.28a48.657,48.657,0,0,1-5.969-1.321c-3.025-.866-4.385-3.033-4.378-6.105.015-6.392,0-12.785.067-19.176.077-7.683.179-15.366.357-23.046.079-3.412.856-4.534,2.923-4.861,3.977-.63,7.33.751,8.549,3.24,1.932,3.947.976,8,.65,12.022-.512,6.3-1.216,12.581-1.775,18.876-.135,1.524-.02,3.071-.02,4.608Z" transform="translate(-76.491 -0.408)" fill="#fff"/><path d="M503.669,348.639a15.635,15.635,0,0,1,1.844-2.712,7.846,7.846,0,0,1,7.617-1.8,5.125,5.125,0,0,1,3.912,4.3,35,35,0,0,1,.586,5.463c.194,6.34-1.447,12.389-3.163,18.41-.763,2.674-1.584,5.341-2.561,7.943-1.136,3.026-4.1,3.533-6.55,1.28a6.424,6.424,0,0,1-1.944-7.31c1.6-5.385,2.757-10.907,4.026-16.388a6.99,6.99,0,0,0-.046-2.633c-.248-1.515-1.123-1.82-2.217-.711a21.958,21.958,0,0,0-5.712,10.191c-.853,3.359-1.656,6.73-2.507,10.09a9.718,9.718,0,0,1-.732,2.118c-.845,1.618-1.342,4-3.73,3.624-3.388-.529-5.188-1.85-5.2-4.975a36.2,36.2,0,0,1,1.016-8.66c2.726-11.077,5.66-22.1,8.49-33.156.3-1.18.19-2.517.692-3.584.624-1.324,1.453-3.068,2.618-3.5a4.812,4.812,0,0,1,5.39,1.485,6.85,6.85,0,0,1,1.23,7.217c-1.383,4.169-2.611,8.39-3.9,12.589Z" transform="translate(-58.418 -1.438)" fill="#fff"/><path d="M633.854,343.43c2.475.849,4.974,1.636,7.416,2.57a3.961,3.961,0,0,1,2.623,3.8c.065,2.028.035,4.062-.025,6.091-.063,2.165-1.487,3.588-2.948,4.929-3.587,3.293-8.048,4.938-12.552,6.489-1.48.509-2.963,1.021-4.4,1.628-.482.2-1.19.726-1.171,1.07a2.1,2.1,0,0,0,.9,1.628,7.214,7.214,0,0,0,3.687.606,25.207,25.207,0,0,0,4.948-2.147c.672-.322,1.238-1,1.925-1.123a6.109,6.109,0,0,1,3.434-.018c1.418.689,1.646,2.307,1.2,3.773a9.469,9.469,0,0,1-4.189,5.74c-3.2,1.959-6.354,3.627-10.258,3.466a11.319,11.319,0,0,1-10.49-9.426c-1.066-7.433,1.169-13.89,5.408-19.919a21.26,21.26,0,0,1,6.375-6.416A21.588,21.588,0,0,1,633.854,343.43Zm-9.5,17.793.616.534c1.642-.623,3.316-1.176,4.918-1.891a11.088,11.088,0,0,0,3.65-2.1,3.77,3.77,0,0,0,.727-3.181c-.456-1.367-2-1.589-3.313-1.116a5.605,5.605,0,0,0-2.542,1.613C626.933,357.033,625.689,359.163,624.353,361.223Z" transform="translate(-96.63 -6.608)" fill="#fff"/><path d="M379.846,384.235c.2,2.7,1.228,3.776,3.609,3.509a12.14,12.14,0,0,0,3.979-1.342c1.388-.7,2.54-1.936,3.971-2.457,1.061-.387,2.9-.477,3.5.15a4.395,4.395,0,0,1,1,3.775,11.3,11.3,0,0,1-6.339,6.993c-3.3,1.375-6.5,2.482-10.061,1.771a11.244,11.244,0,0,1-8.739-9.857c-.821-6.166,1.248-11.585,4.19-16.864a28.431,28.431,0,0,1,6.434-7.728c4.17-3.624,11.908-4.62,16.37-1.363,3.557,2.6,4.586,7.038,2.314,11.4-3.254,6.25-9.054,8.341-15.117,10.262C383.277,383.014,381.622,383.623,379.846,384.235Zm1.811-7.771a13.5,13.5,0,0,0,8.8-3.569c.694-.617,1.261-2.636,1-2.83-.973-.723-2.532-1.586-3.479-1.261C384.473,370.005,382.627,372.837,381.657,376.463Z" transform="translate(-23.133 -11.269)" fill="#fff"/><path d="M464.575,365.356a19.784,19.784,0,0,0-8.042,14.668c-.225,2.371,1.209,3.519,3.477,2.788a25.306,25.306,0,0,0,4.668-2.441c.763-.44,1.364-1.234,2.164-1.517,1.2-.424,2.987-1.156,3.66-.64.977.749,1.3,2.464,1.667,3.83a3.546,3.546,0,0,1-.482,1.942c-2.366,5.743-11.454,9.893-17.351,7.943-3.767-1.246-7.576-6.058-7.693-11.964-.079-3.943,1.361-7.438,2.99-10.9a35.932,35.932,0,0,1,8.381-11.38c3.683-3.345,9.728-4.533,14.262-1.127a4.478,4.478,0,0,1,.934,1.074c2.041,2.981,1.693,8.725-.6,11.535a3.946,3.946,0,0,1-4.107,1.646,4.29,4.29,0,0,1-3.351-3.217C464.956,366.962,464.816,366.307,464.575,365.356Z" transform="translate(-46.126 -9.961)" fill="#fff"/><path d="M428.086,362.044c2.059-.966,3.982-2.037,6.025-2.773,1.575-.567,2.792.239,3.358,1.824a13.116,13.116,0,0,1,.072,8.406c-.661,2.159-4.065,3.6-6.147,2.623-.6-.28-.976-1.187-1.3-1.88a14.49,14.49,0,0,1-.641-2.2l-.748-.184a17.178,17.178,0,0,0-1.827,3.542c-1.224,4.862-2.188,9.789-3.414,14.65a41.855,41.855,0,0,1-2.27,6.3c-.958,2.217-2.318,2.778-4.812,2.3-2.655-.507-4.459-1.935-4.3-4.07a47.534,47.534,0,0,1,1.465-8.261c1.058-4.137,2.436-8.192,3.525-12.322.689-2.613,1.027-5.315,1.651-7.947.894-3.769,2.176-5.092,4.62-5.032C426.034,357.094,427.435,358.652,428.086,362.044Z" transform="translate(-35.676 -10.719)" fill="#fff"/><path d="M589.81,376.07c1.049-4.234,2.421-10.257,4.061-16.207a97.363,97.363,0,0,1,3.656-10.542c1-2.476,2.414-3.142,4.411-2.689,2.758.625,4,1.94,4,4.6a17.337,17.337,0,0,1-.661,3.776q-2.5,10.809-5.041,21.606c-.468,1.982-1.013,3.947-1.543,5.914a2.276,2.276,0,0,1-2.6,1.766C592.02,384.235,589.729,381.974,589.81,376.07Z" transform="translate(-89.41 -7.536)" fill="#fff"/><path d="M602.608,328.6a29.262,29.262,0,0,1,1.275-4.425c1.015-2.25,2.327-2.8,4.773-2.539,2.137.226,3.05,1.755,3.518,3.5a9.8,9.8,0,0,1-1.633,8.345c-1.7,2.445-5.985,1.818-7.072-1A27.35,27.35,0,0,1,602.608,328.6Z" transform="translate(-93.279 0)" fill="#fff"/></g></svg>